<svg width="22.000000pt" height="22.000000pt" viewBox="0 0 500.000000 225.000000" xmlns="http://www.w3.org/2000/svg">
  <g transform="translate(0.000000,22.000000) scale(0.100000,-0.100000)" fill="#fae17f" stroke="none">
    <path d="M885 2230 c-146 -33 -269 -87 -394 -174 -40 -28 -88 -61 -105 -72
-74 -50 -209 -222 -272 -346 -42 -82 -81 -198 -100 -296 l-14 -74 0 -144 0
-145 16 -75 c21 -103 68 -234 115 -323 47 -87 164 -241 184 -241 l13 0 4 158
3 157 24 38 23 38 52 29 51 30 208 0 207 0 0 161 0 161 -22 31 c-11 18 -37 49
-57 70 -19 20 -30 37 -23 37 7 0 12 7 12 15 0 8 -7 15 -15 15 -8 0 -15 -5 -15
-12 0 -19 -68 55 -80 86 -5 15 -10 55 -10 89 l0 63 17 23 17 24 0 116 1 116
29 53 30 53 40 24 c23 13 54 27 71 31 16 4 38 16 50 27 32 30 111 67 167 77
l52 10 56 -10 c65 -12 175 -63 244 -113 27 -20 215 -199 418 -399 203 -200
376 -365 385 -367 l16 -3 -6 83 c-4 46 -18 127 -33 179 -65 237 -195 431 -385
575 -160 122 -296 187 -469 226 l-85 19 -170 -1 -170 -1 -80 -18z" />
    <path d="M2260 1055 c0 -8 5 -15 10 -15 6 0 10 7 10 15 0 8 -4 15 -10 15 -5 0
-10 -7 -10 -15z" />
    <path d="M2250 965 c0 -8 7 -15 15 -15 8 0 15 7 15 15 0 8 -7 15 -15 15 -8 0
-15 -7 -15 -15z" />
    <path d="M2000 405 c0 -8 7 -15 15 -15 8 0 15 7 15 15 0 8 -7 15 -15 15 -8 0
-15 -7 -15 -15z" />
  </g>
  <g transform="translate(0.000000,225.000000) scale(0.100000,-0.100000)" fill="#fefefe" stroke="none">
    <path d="M1 1718 c1 -293 3 -522 5 -508 2 14 9 58 15 98 13 92 59 232 103 319
63 125 198 297 272 347 17 11 66 45 109 75 136 94 287 154 460 185 l80 14
-522 1 -523 1 1 -532z" />
    <path d="M1315 2234 c197 -35 364 -109 532 -237 231 -176 370 -417 418 -722
l13 -80 1 528 1 527 -522 -1 -523 -1 80 -14z" />
    <path d="M2270 1070 c0 -7 3 -10 7 -7 3 4 3 10 0 14 -4 3 -7 0 -7 -7z" />
    <path d="M1 538 l-1 -538 575 0 575 0 0 329 0 330 -10 6 c-5 3 -35 13 -66 21
-60 15 -137 63 -154 94 -6 11 -17 20 -25 20 l-15 0 0 -379 0 -379 -57 18
c-115 35 -200 75 -299 141 -55 37 -123 88 -151 113 -28 25 -53 43 -56 40 -8
-8 -131 155 -171 227 -65 119 -119 288 -135 421 l-8 73 -2 -537z" />
    <path d="M2265 1040 c-4 -6 -6 -25 -4 -43 1 -17 -1 -39 -4 -47 -3 -8 -13 -46
-22 -84 -9 -38 -29 -104 -46 -147 -31 -80 -108 -216 -153 -270 l-26 -31 7 -11
c3 -7 3 -9 -2 -5 -4 4 -42 -24 -84 -63 -78 -72 -214 -170 -288 -207 -110 -56
-307 -112 -395 -112 -21 0 -38 -4 -38 -10 l0 -10 535 0 535 0 0 525 c0 289 -2
525 -4 525 -3 0 -8 -5 -11 -10z" />
  </g>
  <g transform="translate(0.000000,225.000000) scale(0.100000,-0.100000)" fill="#efc858" stroke="none">
    <path d="M1637 1752 c-10 -11 -33 -28 -52 -38 l-35 -19 0 -62 0 -63 20 -32 20
-33 0 -68 0 -68 -15 -29 c-17 -32 -43 -50 -73 -50 l-19 0 -24 -52 c-13 -28
-36 -69 -51 -90 l-28 -38 0 -160 0 -160 205 0 206 0 37 -19 c53 -28 100 -77
112 -119 5 -21 10 -97 10 -169 l0 -133 9 0 c14 0 89 89 138 163 59 90 106 193
137 300 29 98 34 136 41 267 l5 95 -306 295 c-168 162 -309 296 -313 298 -4 1
-15 -6 -24 -16z" />
    <path d="M730 1293 c0 -14 89 -98 96 -90 9 9 -16 68 -27 61 l-9 -5 6 15 6 16
-13 0 c-8 0 -24 3 -36 6 -13 4 -23 2 -23 -3z" />
    <path d="M3 1110 c0 -30 2 -43 4 -27 2 15 2 39 0 55 -2 15 -4 2 -4 -28z" />
  </g>
  <g transform="translate(0.000000,225.000000) scale(0.100000,-0.100000)" fill="#1f4f76" stroke="none">
    <path d="M1390 416 l0 -386 11 0 c6 0 52 14 102 31 l92 31 -3 154 -3 154 60 0
61 0 0 -120 c0 -66 3 -120 6 -120 10 0 97 62 167 118 l67 54 0 159 0 159 -15
37 -15 38 -51 35 -52 35 -213 3 -214 3 0 -385z" />
    <path d="M550 286 l0 -123 58 -30 c31 -17 67 -34 80 -38 l22 -6 0 160 0 161
-80 0 -80 0 0 -124z" />
  </g>
  <g transform="translate(0.000000,225.000000) scale(0.100000,-0.100000)" fill="#326a8f" stroke="none">
    <path d="M680 800 l-215 -5 -47 -27 -46 -28 -24 -37 -23 -38 -3 -161 -4 -161
46 -40 c25 -22 80 -64 121 -92 l75 -52 0 120 0 121 70 0 71 0 -3 -155 -3 -154
55 -20 c83 -30 131 -43 135 -39 3 2 6 178 7 391 2 213 3 386 3 385 0 -1 -97
-5 -215 -8z" />
    <path d="M1879 283 l-14 -18 18 14 c16 13 21 21 13 21 -2 0 -10 -8 -17 -17z" />
    <path d="M1824 238 l-7 -11 11 7 c7 4 12 9 12 12 0 8 -9 4 -16 -8z" />
    <path d="M1765 200 c-16 -11 -25 -20 -20 -20 10 0 64 39 55 40 -3 0 -18 -9
-35 -20z" />
    <path d="M580 151 c0 -5 7 -12 16 -15 l17 -6 -13 15 c-14 17 -20 19 -20 6z" />
    <path d="M1498 63 c7 -3 16 -2 19 1 4 3 -2 6 -13 5 l-19 -1 13 -5z" />
    <path d="M1390 40 c0 -6 7 -10 15 -10 8 0 15 2 15 4 0 2 -7 6 -15 10 -8 3 -15
1 -15 -4z" />
  </g>
  <g transform="translate(0.000000,225.000000) scale(0.100000,-0.100000)" fill="#e9a577" stroke="none">
    <path d="M1150 2060 c0 -5 11 -10 25 -10 14 0 25 5 25 10 0 6 -11 10 -25 10
-14 0 -25 -4 -25 -10z" />
    <path d="M1070 2050 c0 -5 7 -10 15 -10 8 0 15 5 15 10 0 6 -7 10 -15 10 -8 0
-15 -4 -15 -10z" />
    <path d="M1270 2040 c0 -5 7 -10 16 -10 l15 0 -6 10 c-3 6 -10 10 -16 10 -5 0
-9 -4 -9 -10z" />
    <path d="M1015 2030 l-6 -10 15 0 c9 0 16 5 16 10 0 6 -4 10 -9 10 -6 0 -13
-4 -16 -10z" />
    <path d="M1320 2021 c0 -11 59 -36 66 -28 3 3 -8 13 -25 21 -35 18 -41 19 -41
7z" />
    <path d="M959 2000 l-24 -19 18 -1 c9 0 17 5 17 10 0 6 7 10 15 10 8 0 15 5
15 10 0 16 -16 12 -41 -10z" />
    <path d="M890 1950 c0 -5 7 -10 15 -10 8 0 15 5 15 10 0 6 -7 10 -15 10 -8 0
-15 -4 -15 -10z" />
    <path d="M1470 1935 c0 -8 7 -15 16 -15 l16 0 -12 15 c-7 8 -14 15 -16 15 -2
0 -4 -7 -4 -15z" />
    <path d="M805 1920 l-6 -10 15 0 c9 0 16 5 16 10 0 6 -4 10 -9 10 -6 0 -13 -4
-16 -10z" />
    <path d="M1520 1895 c0 -8 7 -15 16 -15 l16 0 -12 15 c-7 8 -14 15 -16 15 -2
0 -4 -7 -4 -15z" />
    <path d="M756 1871 c-4 -7 -5 -15 -2 -18 9 -9 19 4 14 18 l-4 13 -8 -13z" />
    <path d="M731 1822 c-13 -25 -14 -42 -2 -42 10 0 25 50 17 57 -2 3 -9 -4 -15
-15z" />
    <path d="M710 1745 c0 -8 5 -15 10 -15 6 0 10 7 10 15 0 8 -4 15 -10 15 -5 0
-10 -7 -10 -15z" />
    <path d="M710 1615 c0 -8 5 -15 10 -15 6 0 10 7 10 15 0 8 -4 15 -10 15 -5 0
-10 -7 -10 -15z" />
    <path d="M900 1615 c0 -8 7 -15 15 -15 8 0 15 7 15 15 0 8 -7 15 -15 15 -8 0
-15 -7 -15 -15z" />
    <path d="M940 1605 c0 -8 7 -15 15 -15 8 0 15 7 15 15 0 8 -7 15 -15 15 -8 0
-15 -7 -15 -15z" />
    <path d="M1320 1609 c-19 -5 -77 -10 -127 -11 l-93 -2 0 -13 c0 -7 7 -13 15
-13 l15 0 0 -291 0 -291 -32 7 c-54 11 -131 50 -167 83 -18 18 -35 32 -37 32
-2 0 -4 -72 -4 -160 l0 -160 120 0 120 0 0 -66 0 -67 58 6 c32 2 73 12 91 21
48 25 111 86 111 107 l0 19 -120 0 -120 0 0 79 0 78 42 7 c23 4 61 15 85 26
55 24 113 69 113 86 0 8 12 31 28 52 15 21 38 62 51 90 l24 52 19 0 c30 0 56
18 72 49 l15 28 2 74 2 74 -16 32 c-9 17 -21 34 -26 38 l-10 6 -7 -38 -7 -38
-35 -40 c-20 -22 -39 -41 -42 -43 -4 -1 -15 43 -25 98 l-18 100 -31 -1 c-17
-1 -47 -5 -66 -10z" />
    <path d="M1000 1595 l0 -15 20 0 20 0 0 15 0 15 -20 0 -20 0 0 -15z" />
    <path d="M850 1580 l0 -20 15 0 15 0 0 20 0 20 -15 0 -15 0 0 -20z" />
    <path d="M710 1540 l0 -20 15 0 15 0 0 20 0 20 -15 0 -15 0 0 -20z" />
    <path d="M840 1530 l0 -20 15 0 15 0 0 20 0 20 -15 0 -15 0 0 -20z" />
    <path d="M830 1480 l0 -20 15 0 15 0 0 20 0 20 -15 0 -15 0 0 -20z" />
    <path d="M772 1434 c2 -11 11 -20 22 -22 l18 -4 -4 18 c-2 11 -11 20 -22 22
l-18 4 4 -18z" />
    <path d="M816 1418 c-9 -34 -8 -38 9 -38 8 0 15 3 15 8 0 4 3 17 6 30 l6 22
-15 0 c-8 0 -17 -10 -21 -22z" />
  </g>
  <g transform="translate(0.000000,225.000000) scale(0.100000,-0.100000)" fill="#fec397" stroke="none">
    <path d="M864 1600 l6 -30 -11 0 -11 0 6 -25 6 -25 -11 0 -11 0 6 -26 7 -26
-12 8 -12 7 5 -32 5 -31 -26 3 c-14 2 -26 8 -26 13 0 5 -10 23 -23 41 -12 17
-22 36 -22 42 0 6 -5 11 -11 11 l-10 0 6 23 6 22 -25 -28 -26 -28 0 -74 c0
-40 5 -86 11 -102 10 -26 42 -64 54 -63 3 0 14 0 25 0 l20 0 11 -27 c6 -16 12
-32 13 -38 4 -24 108 -152 141 -174 41 -28 129 -60 163 -61 l22 0 0 298 0 299
-39 13 -39 13 -26 -7 -26 -6 0 11 0 11 -30 -4 -30 -5 0 10 c0 5 -9 7 -20 4
-11 -3 -20 -1 -20 4 0 5 -12 9 -26 9 l-26 0 6 -30z" />
    <path d="M1376 796 c3 -9 11 -16 16 -16 13 0 5 23 -10 28 l-12 4 6 -16z" />
    <path d="M906 774 c35 -52 113 -92 242 -121 l22 -5 0 11 c0 6 -7 11 -15 11
l-15 0 0 65 0 65 -125 0 -125 0 16 -26z" />
    <path d="M1295 710 l-6 -10 15 0 c9 0 16 5 16 10 0 6 -4 10 -9 10 -6 0 -13 -4
-16 -10z" />
    <path d="M1205 670 l-6 -10 15 0 c9 0 16 5 16 10 0 6 -4 10 -9 10 -6 0 -13 -4
-16 -10z" />
  </g>
  <g transform="translate(0.000000,225.000000) scale(0.100000,-0.100000)" fill="#88481c" stroke="none">
    <path d="M1129 2062 c0 -4 0 -110 1 -237 l1 -230 9 -9 9 -9 98 12 c54 7 112
14 129 17 l30 6 18 -99 c10 -54 22 -104 25 -111 l7 -12 48 56 49 56 5 92 5 93
33 18 c18 10 42 28 54 40 l21 22 -48 49 c-27 27 -64 62 -83 77 -19 15 -48 39
-65 52 -29 24 -140 81 -200 103 -36 14 -145 24 -146 14z" />
  </g>
  <g transform="translate(0.000000,225.000000) scale(0.100000,-0.100000)" fill="#ae5d21" stroke="none">
    <path d="M1129 2066 c-2 -2 -20 -7 -40 -10 -34 -5 -109 -39 -136 -61 -7 -5
-20 -16 -29 -24 -9 -8 -27 -16 -40 -17 -13 -1 -43 -14 -67 -28 l-43 -26 -24
-47 c-13 -27 -26 -55 -29 -63 -6 -22 -5 -210 2 -245 3 -16 6 -35 6 -41 1 -18
88 -107 98 -101 5 3 10 22 11 43 2 20 5 41 8 46 3 5 8 21 10 36 2 15 6 36 8
47 2 11 4 26 5 33 l1 13 28 -5 c15 -3 38 -7 52 -10 72 -16 201 -26 195 -15 -3
3 -5 112 -5 243 -1 130 -3 236 -4 236 -1 0 -5 -2 -7 -4z" />
    <path d="M1315 2030 c3 -5 8 -10 11 -10 3 0 2 5 -1 10 -3 6 -8 10 -11 10 -3 0
-2 -4 1 -10z" />
    <path d="M1383 1993 c4 -3 10 -3 14 0 3 4 0 7 -7 7 -7 0 -10 -3 -7 -7z" />
    <path d="M1440 1961 c14 -11 30 -21 35 -21 11 0 -7 14 -40 31 l-20 10 25 -20z" />
    <path d="M1497 1919 c7 -7 15 -10 18 -7 3 3 -2 9 -12 12 l-18 7 12 -12z" />
    <path d="M1565 1860 c3 -5 8 -10 11 -10 3 0 2 5 -1 10 -3 6 -8 10 -11 10 -3 0
-2 -4 1 -10z" />
    <path d="M1630 1803 c0 -6 8 -17 18 -24 l17 -14 -15 20 c-8 11 -16 22 -17 24
-2 2 -3 0 -3 -6z" />
    <path d="M1634 1738 l-7 -11 11 7 c12 7 16 16 8 16 -3 0 -8 -5 -12 -12z" />
    <path d="M1273 1593 c4 -3 10 -3 14 0 3 4 0 7 -7 7 -7 0 -10 -3 -7 -7z" />
    <path d="M1551 1584 l1 -19 5 13 c3 7 2 16 -1 19 -3 4 -6 -2 -5 -13z" />
    <path d="M1410 1580 c0 -7 3 -10 7 -7 3 4 3 10 0 14 -4 3 -7 0 -7 -7z" />
    <path d="M1420 1530 c0 -7 3 -10 7 -7 3 4 3 10 0 14 -4 3 -7 0 -7 -7z" />
    <path d="M1540 1510 c0 -7 3 -10 7 -7 3 4 3 10 0 14 -4 3 -7 0 -7 -7z" />
    <path d="M1524 1478 l-7 -11 11 7 c7 4 12 9 12 12 0 8 -9 4 -16 -8z" />
  </g>
  <g transform="translate(0.000000,225.000000) scale(0.100000,-0.100000)" fill="#cdcdcd" stroke="none">
    <path d="M1341 746 c-40 -41 -112 -74 -170 -78 l-41 -3 5 -13 c3 -8 5 -158 5
-334 l0 -320 78 6 c42 4 98 12 125 17 l47 11 0 374 c0 206 -4 374 -8 374 -4 0
-23 -15 -41 -34z" />
    <path d="M1940 344 l0 -16 15 12 c8 7 15 14 15 16 0 2 -7 4 -15 4 -8 0 -15 -7
-15 -16z" />
    <path d="M1660 140 c0 -5 4 -10 9 -10 6 0 13 5 16 10 l6 10 -15 0 c-9 0 -16
-4 -16 -10z" />
    <path d="M637 119 c7 -7 15 -10 18 -7 3 3 -2 9 -12 12 l-18 7 12 -12z" />
    <path d="M1600 110 c0 -5 4 -10 9 -10 6 0 13 5 16 10 l6 10 -15 0 c-9 0 -16
-4 -16 -10z" />
    <path d="M705 90 c3 -5 8 -10 11 -10 3 0 2 5 -1 10 -3 6 -8 10 -11 10 -3 0 -2
-4 1 -10z" />
    <path d="M870 40 l-15 -10 18 0 c9 0 17 5 17 10 0 12 -1 12 -20 0z" />
    <path d="M1414 38 l-7 -11 11 7 c12 7 16 16 8 16 -3 0 -8 -5 -12 -12z" />
  </g>
  <g transform="translate(0.000000,225.000000) scale(0.100000,-0.100000)" fill="#d28c5a" stroke="none">
    <path d="M1093 2053 c4 -3 10 -3 14 0 3 4 0 7 -7 7 -7 0 -10 -3 -7 -7z" />
    <path d="M1238 2053 c7 -3 16 -2 19 1 4 3 -2 6 -13 5 l-19 -1 13 -5z" />
    <path d="M1048 2043 c7 -3 16 -2 19 1 4 3 -2 6 -13 5 l-19 -1 13 -5z" />
    <path d="M1415 1980 c3 -5 8 -10 11 -10 3 0 2 5 -1 10 -3 6 -8 10 -11 10 -3 0
-2 -4 1 -10z" />
    <path d="M1445 1960 c3 -5 8 -10 11 -10 3 0 2 5 -1 10 -3 6 -8 10 -11 10 -3 0
-2 -4 1 -10z" />
    <path d="M853 1943 c4 -3 10 -3 14 0 3 4 0 7 -7 7 -7 0 -10 -3 -7 -7z" />
    <path d="M1545 1880 c3 -5 8 -10 11 -10 3 0 2 5 -1 10 -3 6 -8 10 -11 10 -3 0
-2 -4 1 -10z" />
    <path d="M712 1720 c0 -14 2 -19 5 -12 2 6 2 18 0 25 -3 6 -5 1 -5 -13z" />
    <path d="M1624 1728 l-7 -11 11 7 c12 7 16 16 8 16 -3 0 -8 -5 -12 -12z" />
    <path d="M1594 1708 l-7 -11 11 7 c12 7 16 16 8 16 -3 0 -8 -5 -12 -12z" />
    <path d="M712 1640 c0 -14 2 -19 5 -12 2 6 2 18 0 25 -3 6 -5 1 -5 -13z" />
    <path d="M873 1623 c4 -3 10 -3 14 0 3 4 0 7 -7 7 -7 0 -10 -3 -7 -7z" />
    <path d="M1388 1613 c7 -3 16 -2 19 1 4 3 -2 6 -13 5 l-19 -1 13 -5z" />
    <path d="M963 1603 c4 -3 10 -3 14 0 3 4 0 7 -7 7 -7 0 -10 -3 -7 -7z" />
    <path d="M1033 1593 c4 -3 10 -3 14 0 3 4 0 7 -7 7 -7 0 -10 -3 -7 -7z" />
    <path d="M1293 1593 c4 -3 10 -3 14 0 3 4 0 7 -7 7 -7 0 -10 -3 -7 -7z" />
    <path d="M1136 1582 c-2 -4 12 -6 32 -4 56 5 62 10 15 11 -23 1 -44 -3 -47 -7z" />
    <path d="M1410 1570 c0 -7 3 -10 7 -7 3 4 3 10 0 14 -4 3 -7 0 -7 -7z" />
    <path d="M1551 1554 l1 -19 5 13 c3 7 2 16 -1 19 -3 4 -6 -2 -5 -13z" />
    <path d="M1420 1520 c0 -7 3 -10 7 -7 3 4 3 10 0 14 -4 3 -7 0 -7 -7z" />
    <path d="M730 1501 c0 -6 4 -13 10 -16 l10 -6 -6 15 c-7 18 -14 21 -14 7z" />
    <path d="M1536 1493 l-7 -18 12 12 c7 7 10 15 7 18 -3 3 -9 -2 -12 -12z" />
    <path d="M830 1440 c0 -7 3 -10 7 -7 3 4 3 10 0 14 -4 3 -7 0 -7 -7z" />
    <path d="M1469 1413 l-14 -18 18 14 c9 7 17 15 17 17 0 8 -8 3 -21 -13z" />
    <path d="M805 1410 c3 -5 8 -10 11 -10 3 0 2 5 -1 10 -3 6 -8 10 -11 10 -3 0
-2 -4 1 -10z" />
    <path d="M1355 1063 c-16 -14 -54 -36 -84 -50 l-54 -26 -41 -1 -41 -1 0 -95 0
-95 130 0 130 0 -3 100 c-1 55 -3 121 -5 147 l-2 46 -30 -25z" />
  </g>
  <g transform="translate(0.000000,225.000000) scale(0.100000,-0.100000)" fill="#153c66" stroke="none">
    <path d="M1580 257 l0 -153 -12 -14 -13 -14 19 14 c11 8 20 13 20 10 1 -3 30
10 66 27 l65 33 -3 125 -3 125 -70 0 -69 0 0 -153z" />
    <path d="M1484 58 l-7 -11 11 7 c7 4 12 9 12 12 0 8 -9 4 -16 -8z" />
    <path d="M1450 49 c0 -5 5 -7 10 -4 6 3 10 8 10 11 0 2 -4 4 -10 4 -5 0 -10
-5 -10 -11z" />
  </g>
  <g transform="translate(0.000000,225.000000) scale(0.100000,-0.100000)" fill="#f0d16e" stroke="none">
    <path d="M1138 2063 c7 -3 16 -2 19 1 4 3 -2 6 -13 5 l-19 -1 13 -5z" />
    <path d="M1064 2048 l-7 -11 11 7 c12 7 16 16 8 16 -3 0 -8 -5 -12 -12z" />
    <path d="M1303 2033 c4 -3 10 -3 14 0 3 4 0 7 -7 7 -7 0 -10 -3 -7 -7z" />
    <path d="M963 2003 c4 -3 10 -3 14 0 3 4 0 7 -7 7 -7 0 -10 -3 -7 -7z" />
    <path d="M1397 1989 c7 -7 15 -10 18 -7 3 3 -2 9 -12 12 l-18 7 12 -12z" />
    <path d="M923 1973 c4 -3 10 -3 14 0 3 4 0 7 -7 7 -7 0 -10 -3 -7 -7z" />
    <path d="M883 1953 c4 -3 10 -3 14 0 3 4 0 7 -7 7 -7 0 -10 -3 -7 -7z" />
    <path d="M1515 1910 c3 -5 8 -10 11 -10 3 0 2 5 -1 10 -3 6 -8 10 -11 10 -3 0
-2 -4 1 -10z" />
    <path d="M774 1898 l-7 -11 11 7 c12 7 16 16 8 16 -3 0 -8 -5 -12 -12z" />
    <path d="M1610 1825 c13 -14 26 -25 28 -25 3 0 -5 11 -18 25 -13 14 -26 25
-28 25 -3 0 5 -11 18 -25z" />
    <path d="M724 1808 l-7 -11 11 7 c12 7 16 16 8 16 -3 0 -8 -5 -12 -12z" />
    <path d="M710 1760 c0 -7 3 -10 7 -7 3 4 3 10 0 14 -4 3 -7 0 -7 -7z" />
    <path d="M1660 1768 c0 -2 140 -141 310 -307 l310 -303 0 17 c0 9 -4 14 -8 11
-5 -3 -33 20 -63 50 -89 92 -549 537 -549 532z" />
    <path d="M711 1594 l1 -19 5 13 c3 7 2 16 -1 19 -3 4 -6 -2 -5 -13z" />
    <path d="M776 1239 c26 -27 50 -46 53 -42 3 3 0 8 -7 10 -6 3 -9 10 -5 16 l6
12 -8 -8 c-10 -8 -67 42 -60 53 2 4 -3 7 -11 7 l-15 0 47 -48z" />
    <path d="M0 1070 c0 -7 3 -10 7 -7 3 4 3 10 0 14 -4 3 -7 0 -7 -7z" />
    <path d="M2270 1070 c0 -7 3 -10 7 -7 3 4 3 10 0 14 -4 3 -7 0 -7 -7z" />
    <path d="M2240 860 c0 -7 3 -10 7 -7 3 4 3 10 0 14 -4 3 -7 0 -7 -7z" />
    <path d="M465 790 l-6 -10 15 6 c18 7 21 14 7 14 -6 0 -13 -4 -16 -10z" />
    <path d="M1790 790 c0 -5 7 -10 16 -10 l15 0 -6 10 c-3 6 -10 10 -16 10 -5 0
-9 -4 -9 -10z" />
    <path d="M405 760 l-6 -10 15 6 c18 7 21 14 7 14 -6 0 -13 -4 -16 -10z" />
    <path d="M1850 760 c0 -5 7 -10 16 -10 l15 0 -6 10 c-3 6 -10 10 -16 10 -5 0
-9 -4 -9 -10z" />
    <path d="M340 689 c-7 -11 -10 -23 -7 -25 2 -2 9 7 15 21 14 30 7 33 -8 4z" />
    <path d="M1930 676 c0 -9 5 -16 10 -16 6 0 10 4 10 9 0 6 -4 13 -10 16 l-10 6
0 -15z" />
    <path d="M2180 680 c0 -7 3 -10 7 -7 3 4 3 10 0 14 -4 3 -7 0 -7 -7z" />
    <path d="M1940 636 c0 -9 5 -16 10 -16 6 0 10 4 10 9 0 6 -4 13 -10 16 l-10 6
0 -15z" />
    <path d="M320 630 c0 -7 3 -10 7 -7 3 4 3 10 0 14 -4 3 -7 0 -7 -7z" />
    <path d="M2074 488 l-7 -11 11 7 c12 7 16 16 8 16 -3 0 -8 -5 -12 -12z" />
    <path d="M2044 448 l-7 -11 11 7 c12 7 16 16 8 16 -3 0 -8 -5 -12 -12z" />
    <path d="M1989 383 l-14 -18 18 14 c9 7 17 15 17 17 0 8 -8 3 -21 -13z" />
    <path d="M1950 360 c0 -5 5 -10 11 -10 5 0 7 5 4 10 -3 6 -8 10 -11 10 -2 0
-4 -4 -4 -10z" />
  </g>
  <g transform="translate(0.000000,225.000000) scale(0.100000,-0.100000)" fill="#325a7d" stroke="none">
    <path d="M1387 793 c-4 -3 -7 -177 -7 -385 l0 -378 10 0 10 0 2 385 c2 212 0
385 -3 385 -3 0 -9 -3 -12 -7z" />
    <path d="M1760 796 c0 -2 7 -6 15 -10 8 -3 15 -1 15 4 0 6 -7 10 -15 10 -8 0
-15 -2 -15 -4z" />
    <path d="M1828 770 c41 -25 54 -25 23 0 -13 11 -31 20 -40 20 l-16 0 33 -20z" />
    <path d="M1930 661 c0 -6 5 -13 10 -16 l10 -6 0 15 c0 9 -4 16 -10 16 -5 0
-10 -4 -10 -9z" />
    <path d="M593 403 c20 -2 54 -2 75 0 20 2 3 4 -38 4 -41 0 -58 -2 -37 -4z" />
    <path d="M325 340 c3 -5 8 -10 11 -10 3 0 2 5 -1 10 -3 6 -8 10 -11 10 -3 0
-2 -4 1 -10z" />
    <path d="M1915 316 l-30 -29 21 11 c22 11 50 41 43 45 -2 1 -17 -11 -34 -27z" />
    <path d="M1729 173 l-14 -18 18 14 c16 13 21 21 13 21 -2 0 -10 -8 -17 -17z" />
    <path d="M610 130 c8 -5 20 -10 25 -10 6 0 3 5 -5 10 -8 5 -19 10 -25 10 -5 0
-3 -5 5 -10z" />
    <path d="M650 114 c0 -7 52 -25 57 -20 2 2 -10 8 -26 14 -17 6 -31 9 -31 6z" />
    <path d="M1553 83 c4 -3 10 -3 14 0 3 4 0 7 -7 7 -7 0 -10 -3 -7 -7z" />
    <path d="M833 43 c4 -3 10 -3 14 0 3 4 0 7 -7 7 -7 0 -10 -3 -7 -7z" />
    <path d="M1428 43 c7 -3 16 -2 19 1 4 3 -2 6 -13 5 l-19 -1 13 -5z" />
  </g>
  <g transform="translate(0.000000,225.000000) scale(0.100000,-0.100000)" fill="#fbf3d8" stroke="none">
    <path d="M1038 2243 c7 -3 16 -2 19 1 4 3 -2 6 -13 5 l-19 -1 13 -5z" />
    <path d="M1228 2243 c7 -3 16 -2 19 1 4 3 -2 6 -13 5 l-19 -1 13 -5z" />
    <path d="M953 2233 c4 -3 10 -3 14 0 3 4 0 7 -7 7 -7 0 -10 -3 -7 -7z" />
    <path d="M1313 2233 c4 -3 10 -3 14 0 3 4 0 7 -7 7 -7 0 -10 -3 -7 -7z" />
    <path d="M903 2223 c4 -3 10 -3 14 0 3 4 0 7 -7 7 -7 0 -10 -3 -7 -7z" />
    <path d="M1363 2223 c4 -3 10 -3 14 0 3 4 0 7 -7 7 -7 0 -10 -3 -7 -7z" />
    <path d="M524 2068 l-7 -11 11 7 c12 7 16 16 8 16 -3 0 -8 -5 -12 -12z" />
    <path d="M494 2048 l-7 -11 11 7 c12 7 16 16 8 16 -3 0 -8 -5 -12 -12z" />
    <path d="M1775 2050 c3 -5 8 -10 11 -10 3 0 2 5 -1 10 -3 6 -8 10 -11 10 -3 0
-2 -4 1 -10z" />
    <path d="M1815 2020 c3 -5 8 -10 11 -10 3 0 2 5 -1 10 -3 6 -8 10 -11 10 -3 0
-2 -4 1 -10z" />
    <path d="M414 1988 l-7 -11 11 7 c12 7 16 16 8 16 -3 0 -8 -5 -12 -12z" />
    <path d="M1855 1990 c3 -5 8 -10 11 -10 3 0 2 5 -1 10 -3 6 -8 10 -11 10 -3 0
-2 -4 1 -10z" />
    <path d="M254 1838 l-7 -11 11 7 c12 7 16 16 8 16 -3 0 -8 -5 -12 -12z" />
    <path d="M2015 1840 c3 -5 8 -10 11 -10 3 0 2 5 -1 10 -3 6 -8 10 -11 10 -3 0
-2 -4 1 -10z" />
    <path d="M224 1798 l-7 -11 11 7 c12 7 16 16 8 16 -3 0 -8 -5 -12 -12z" />
    <path d="M2045 1800 c3 -5 8 -10 11 -10 3 0 2 5 -1 10 -3 6 -8 10 -11 10 -3 0
-2 -4 1 -10z" />
    <path d="M194 1758 l-7 -11 11 7 c12 7 16 16 8 16 -3 0 -8 -5 -12 -12z" />
    <path d="M2075 1760 c3 -5 8 -10 11 -10 3 0 2 5 -1 10 -3 6 -8 10 -11 10 -3 0
-2 -4 1 -10z" />
    <path d="M174 1728 l-7 -11 11 7 c12 7 16 16 8 16 -3 0 -8 -5 -12 -12z" />
    <path d="M2095 1730 c3 -5 8 -10 11 -10 3 0 2 5 -1 10 -3 6 -8 10 -11 10 -3 0
-2 -4 1 -10z" />
    <path d="M50 1460 c0 -7 3 -10 7 -7 3 4 3 10 0 14 -4 3 -7 0 -7 -7z" />
    <path d="M2220 1460 c0 -7 3 -10 7 -7 3 4 3 10 0 14 -4 3 -7 0 -7 -7z" />
    <path d="M40 1430 c0 -7 3 -10 7 -7 3 4 3 10 0 14 -4 3 -7 0 -7 -7z" />
    <path d="M2230 1430 c0 -7 3 -10 7 -7 3 4 3 10 0 14 -4 3 -7 0 -7 -7z" />
    <path d="M2240 1390 c0 -7 3 -10 7 -7 3 4 3 10 0 14 -4 3 -7 0 -7 -7z" />
    <path d="M20 1350 c0 -7 3 -10 7 -7 3 4 3 10 0 14 -4 3 -7 0 -7 -7z" />
    <path d="M2250 1350 c0 -7 3 -10 7 -7 3 4 3 10 0 14 -4 3 -7 0 -7 -7z" />
    <path d="M11 1294 l1 -19 5 13 c3 7 2 16 -1 19 -3 4 -6 -2 -5 -13z" />
    <path d="M2261 1294 l1 -19 5 13 c3 7 2 16 -1 19 -3 4 -6 -2 -5 -13z" />
    <path d="M2272 1190 c0 -19 2 -27 5 -17 2 9 2 25 0 35 -3 9 -5 1 -5 -18z" />
    <path d="M2 1175 l0 -30 5 18 c2 9 2 23 0 30 -3 6 -5 -1 -5 -18z" />
    <path d="M2 1080 c0 -14 2 -19 5 -12 2 6 2 18 0 25 -3 6 -5 1 -5 -13z" />
    <path d="M2270 1040 c0 -7 3 -10 7 -7 3 4 3 10 0 14 -4 3 -7 0 -7 -7z" />
    <path d="M10 960 c0 -7 3 -10 7 -7 3 4 3 10 0 14 -4 3 -7 0 -7 -7z" />
    <path d="M2260 950 c0 -7 3 -10 7 -7 3 4 3 10 0 14 -4 3 -7 0 -7 -7z" />
    <path d="M20 900 c0 -7 3 -10 7 -7 3 4 3 10 0 14 -4 3 -7 0 -7 -7z" />
    <path d="M2250 900 c0 -7 3 -10 7 -7 3 4 3 10 0 14 -4 3 -7 0 -7 -7z" />
    <path d="M30 860 c0 -7 3 -10 7 -7 3 4 3 10 0 14 -4 3 -7 0 -7 -7z" />
    <path d="M50 790 c0 -7 3 -10 7 -7 3 4 3 10 0 14 -4 3 -7 0 -7 -7z" />
    <path d="M884 788 l-7 -11 11 7 c12 7 16 16 8 16 -3 0 -8 -5 -12 -12z" />
    <path d="M60 760 c0 -7 3 -10 7 -7 3 4 3 10 0 14 -4 3 -7 0 -7 -7z" />
    <path d="M925 750 c10 -11 20 -20 23 -20 3 0 -3 9 -13 20 -10 11 -20 20 -23
20 -3 0 3 -9 13 -20z" />
    <path d="M1110 666 c0 -2 7 -6 15 -10 8 -3 15 -1 15 4 0 6 -7 10 -15 10 -8 0
-15 -2 -15 -4z" />
    <path d="M195 490 c3 -5 8 -10 11 -10 3 0 2 5 -1 10 -3 6 -8 10 -11 10 -3 0
-2 -4 1 -10z" />
    <path d="M2054 458 l-7 -11 11 7 c12 7 16 16 8 16 -3 0 -8 -5 -12 -12z" />
    <path d="M225 450 c3 -5 8 -10 11 -10 3 0 2 5 -1 10 -3 6 -8 10 -11 10 -3 0
-2 -4 1 -10z" />
    <path d="M255 410 c3 -5 8 -10 11 -10 3 0 2 5 -1 10 -3 6 -8 10 -11 10 -3 0
-2 -4 1 -10z" />
    <path d="M575 150 c3 -5 8 -10 11 -10 2 0 4 5 4 10 0 6 -5 10 -11 10 -5 0 -7
-4 -4 -10z" />
  </g>
  <g transform="translate(0.000000,225.000000) scale(0.100000,-0.100000)" fill="#f5b587" stroke="none">
    <path d="M1088 1583 c7 -3 16 -2 19 1 4 3 -2 6 -13 5 l-19 -1 13 -5z" />
    <path d="M1134 1280 c0 -168 2 -236 3 -152 2 83 2 221 0 305 -1 83 -3 15 -3
-153z" />
    <path d="M854 1558 l-7 -11 11 7 c12 7 16 16 8 16 -3 0 -8 -5 -12 -12z" />
    <path d="M750 1473 c0 -6 8 -17 18 -24 l17 -14 -15 20 c-8 11 -16 22 -17 24
-2 2 -3 0 -3 -6z" />
    <path d="M758 1283 c6 -2 18 -2 25 0 6 3 1 5 -13 5 -14 0 -19 -2 -12 -5z" />
    <path d="M900 1086 c0 -2 8 -10 18 -17 l17 -14 -14 18 c-13 16 -21 21 -21 13z" />
    <path d="M955 1040 c3 -5 8 -10 11 -10 3 0 2 5 -1 10 -3 6 -8 10 -11 10 -3 0
-2 -4 1 -10z" />
    <path d="M1023 1003 c4 -3 10 -3 14 0 3 4 0 7 -7 7 -7 0 -10 -3 -7 -7z" />
    <path d="M1053 993 c4 -3 10 -3 14 0 3 4 0 7 -7 7 -7 0 -10 -3 -7 -7z" />
    <path d="M1098 983 c7 -3 16 -2 19 1 4 3 -2 6 -13 5 l-19 -1 13 -5z" />
    <path d="M1128 730 c-2 -39 0 -70 5 -70 4 0 7 32 7 70 0 39 -2 70 -4 70 -2 0
-6 -32 -8 -70z" />
  </g>
  <g transform="translate(0.000000,225.000000) scale(0.100000,-0.100000)" fill="#d6d6d5" stroke="none">
    <path d="M1378 783 c-2 -5 -1 -177 2 -383 l5 -375 3 383 c1 210 0 382 -2 382
-3 0 -6 -3 -8 -7z" />
    <path d="M1314 718 l-7 -11 11 7 c12 7 16 16 8 16 -3 0 -8 -5 -12 -12z" />
    <path d="M415 260 c3 -5 8 -10 11 -10 3 0 2 5 -1 10 -3 6 -8 10 -11 10 -3 0
-2 -4 1 -10z" />
    <path d="M1850 259 c0 -5 5 -7 10 -4 6 3 10 8 10 11 0 2 -4 4 -10 4 -5 0 -10
-5 -10 -11z" />
    <path d="M1514 68 l-7 -11 11 7 c7 4 12 9 12 12 0 8 -9 4 -16 -8z" />
    <path d="M763 63 c4 -3 10 -3 14 0 3 4 0 7 -7 7 -7 0 -10 -3 -7 -7z" />
    <path d="M793 53 c4 -3 10 -3 14 0 3 4 0 7 -7 7 -7 0 -10 -3 -7 -7z" />
    <path d="M1445 50 c-3 -5 -1 -10 4 -10 6 0 11 5 11 10 0 6 -2 10 -4 10 -3 0
-8 -4 -11 -10z" />
    <path d="M1298 13 c7 -3 16 -2 19 1 4 3 -2 6 -13 5 l-19 -1 13 -5z" />
    <path d="M1198 3 c7 -3 16 -2 19 1 4 3 -2 6 -13 5 l-19 -1 13 -5z" />
  </g>
  <g transform="translate(0.000000,225.000000) scale(0.100000,-0.100000)" fill="#064a77" stroke="none">
    <path d="M1482 793 c48 -2 129 -2 180 0 51 1 12 3 -87 3 -99 0 -141 -2 -93 -3z" />
    <path d="M1780 790 c0 -5 7 -10 16 -10 l15 0 -6 10 c-3 6 -10 10 -16 10 -5 0
-9 -4 -9 -10z" />
    <path d="M1820 780 c0 -7 3 -10 7 -7 3 4 3 10 0 14 -4 3 -7 0 -7 -7z" />
    <path d="M1841 774 c-1 -10 52 -54 65 -54 4 0 -1 9 -11 20 -10 11 -24 20 -31
20 -7 0 -15 6 -17 13 l-5 12 -1 -11z" />
    <path d="M1907 702 c6 -4 17 -20 22 -35 l11 -28 0 -152 0 -151 11 11 10 10 -4
139 c-3 127 -9 184 -23 206 -3 4 -13 8 -22 8 l-17 0 12 -8z" />
    <path d="M1853 263 c4 -3 10 -3 14 0 3 4 0 7 -7 7 -7 0 -10 -3 -7 -7z" />
    <path d="M1773 203 c4 -3 10 -3 14 0 3 4 0 7 -7 7 -7 0 -10 -3 -7 -7z" />
    <path d="M573 153 c4 -3 10 -3 14 0 3 4 0 7 -7 7 -7 0 -10 -3 -7 -7z" />
    <path d="M1523 73 c4 -3 10 -3 14 0 3 4 0 7 -7 7 -7 0 -10 -3 -7 -7z" />
    <path d="M1444 48 l-7 -11 11 7 c7 4 12 9 12 12 0 8 -9 4 -16 -8z" />
  </g>
  <g transform="translate(0.000000,225.000000) scale(0.100000,-0.100000)" fill="#fae8a9" stroke="none">
    <path d="M1053 2243 c4 -3 10 -3 14 0 3 4 0 7 -7 7 -7 0 -10 -3 -7 -7z" />
    <path d="M1213 2243 c4 -3 10 -3 14 0 3 4 0 7 -7 7 -7 0 -10 -3 -7 -7z" />
    <path d="M1865 1980 c3 -5 8 -10 11 -10 3 0 2 5 -1 10 -3 6 -8 10 -11 10 -3 0
-2 -4 1 -10z" />
    <path d="M1990 1866 c0 -2 8 -10 18 -17 l17 -14 -14 18 c-13 16 -21 21 -21 13z" />
    <path d="M264 1848 l-7 -11 11 7 c12 7 16 16 8 16 -3 0 -8 -5 -12 -12z" />
    <path d="M3 1130 c0 -25 2 -35 4 -22 2 12 2 32 0 45 -2 12 -4 2 -4 -23z" />
    <path d="M1123 663 c4 -3 10 -3 14 0 3 4 0 7 -7 7 -7 0 -10 -3 -7 -7z" />
    <path d="M265 400 c3 -5 8 -10 11 -10 3 0 2 5 -1 10 -3 6 -8 10 -11 10 -3 0
-2 -4 1 -10z" />
  </g>
  <g transform="translate(0.000000,225.000000) scale(0.100000,-0.100000)" fill="#91adc0" stroke="none">
    <path d="M880 378 c-3 -191 -2 -344 3 -339 4 4 6 160 5 347 l-3 339 -5 -347z" />
    <path d="M405 270 c3 -5 8 -10 11 -10 3 0 2 5 -1 10 -3 6 -8 10 -11 10 -3 0
-2 -4 1 -10z" />
    <path d="M1864 268 l-7 -11 11 7 c7 4 12 9 12 12 0 8 -9 4 -16 -8z" />
    <path d="M455 230 c3 -5 8 -10 11 -10 3 0 2 5 -1 10 -3 6 -8 10 -11 10 -3 0
-2 -4 1 -10z" />
    <path d="M1814 228 l-7 -11 11 7 c12 7 16 16 8 16 -3 0 -8 -5 -12 -12z" />
  </g>
  <g transform="translate(0.000000,225.000000) scale(0.100000,-0.100000)" fill="#ba7941" stroke="none">
    <path d="M934 1978 l-7 -11 11 7 c7 4 12 9 12 12 0 8 -9 4 -16 -8z" />
    <path d="M1555 1870 c3 -5 8 -10 11 -10 3 0 2 5 -1 10 -3 6 -8 10 -11 10 -3 0
-2 -4 1 -10z" />
    <path d="M1655 1770 c3 -5 8 -10 11 -10 3 0 2 5 -1 10 -3 6 -8 10 -11 10 -3 0
-2 -4 1 -10z" />
    <path d="M712 1680 c0 -19 2 -27 5 -17 2 9 2 25 0 35 -3 9 -5 1 -5 -18z" />
    <path d="M860 1600 c0 -7 3 -10 7 -7 3 4 3 10 0 14 -4 3 -7 0 -7 -7z" />
    <path d="M1343 1603 c4 -3 10 -3 14 0 3 4 0 7 -7 7 -7 0 -10 -3 -7 -7z" />
    <path d="M1043 1593 c4 -3 10 -3 14 0 3 4 0 7 -7 7 -7 0 -10 -3 -7 -7z" />
    <path d="M1283 1593 c4 -3 10 -3 14 0 3 4 0 7 -7 7 -7 0 -10 -3 -7 -7z" />
    <path d="M1550 1570 c0 -7 3 -10 7 -7 3 4 3 10 0 14 -4 3 -7 0 -7 -7z" />
    <path d="M720 1560 c0 -7 3 -10 7 -7 3 4 3 10 0 14 -4 3 -7 0 -7 -7z" />
    <path d="M850 1550 c0 -7 3 -10 7 -7 3 4 3 10 0 14 -4 3 -7 0 -7 -7z" />
    <path d="M745 1480 c3 -5 8 -10 11 -10 3 0 2 5 -1 10 -3 6 -8 10 -11 10 -3 0
-2 -4 1 -10z" />
    <path d="M1430 1470 c0 -7 3 -10 7 -7 3 4 3 10 0 14 -4 3 -7 0 -7 -7z" />
    <path d="M1440 1420 c0 -7 3 -10 7 -7 3 4 3 10 0 14 -4 3 -7 0 -7 -7z" />
    <path d="M1454 1398 l-7 -11 11 7 c7 4 12 9 12 12 0 8 -9 4 -16 -8z" />
  </g>
  <g transform="translate(0.000000,225.000000) scale(0.100000,-0.100000)" fill="#a99c65" stroke="none">
    <path d="M1783 793 c4 -3 10 -3 14 0 3 4 0 7 -7 7 -7 0 -10 -3 -7 -7z" />
    <path d="M1887 739 c12 -12 24 -21 27 -18 2 2 -8 13 -22 23 l-27 19 22 -24z" />
    <path d="M1926 697 c3 -10 9 -15 12 -12 3 3 0 11 -7 18 l-12 12 7 -18z" />
    <path d="M1954 490 c0 -80 2 -112 3 -72 2 39 2 105 0 145 -1 39 -3 7 -3 -73z" />
  </g>
  <g transform="translate(0.000000,225.000000) scale(0.100000,-0.100000)" fill="#b6b586" stroke="none">
    <path d="M483 793 c4 -3 10 -3 14 0 3 4 0 7 -7 7 -7 0 -10 -3 -7 -7z" />
    <path d="M453 783 c4 -3 10 -3 14 0 3 4 0 7 -7 7 -7 0 -10 -3 -7 -7z" />
    <path d="M424 768 l-7 -11 11 7 c12 7 16 16 8 16 -3 0 -8 -5 -12 -12z" />
    <path d="M379 739 l-24 -20 28 17 c15 9 27 18 27 20 0 8 -8 4 -31 -17z" />
    <path d="M330 660 c0 -7 3 -10 7 -7 3 4 3 10 0 14 -4 3 -7 0 -7 -7z" />
    <path d="M324 485 c0 -82 2 -115 3 -72 2 43 2 110 0 150 -1 40 -3 5 -3 -78z" />
  </g>
  <g transform="translate(0.000000,225.000000) scale(0.100000,-0.100000)" fill="#688ca0" stroke="none">
    <path d="M493 793 c4 -3 10 -3 14 0 3 4 0 7 -7 7 -7 0 -10 -3 -7 -7z" />
    <path d="M883 750 c0 -25 2 -35 4 -22 2 12 2 32 0 45 -2 12 -4 2 -4 -23z" />
  </g>
  <g transform="translate(0.000000,225.000000) scale(0.100000,-0.100000)" fill="#e4c1a9" stroke="none">
    <path d="M1344 748 l-29 -33 33 29 c30 28 37 36 29 36 -2 0 -16 -15 -33 -32z" />
    <path d="M1223 673 c4 -3 10 -3 14 0 3 4 0 7 -7 7 -7 0 -10 -3 -7 -7z" />
    <path d="M1168 663 c6 -2 18 -2 25 0 6 3 1 5 -13 5 -14 0 -19 -2 -12 -5z" />
  </g>
</svg>